Coordinates
version=1
nRows=12
nColumns=42
inDegrees=yes

Units are S.I. units (second, meters, Newtons, ...)
If the header above contains a line with 'inDegrees', this indicates whether rotational values are in degrees (yes) or radians (no).

endheader
time	pelvis_tilt	pelvis_list	pelvis_rotation	pelvis_tx	pelvis_ty	pelvis_tz	hip_flexion_r	hip_adduction_r	hip_rotation_r	knee_angle_r	knee_adduction_r	knee_angle_r_beta	ankle_angle_r	subtalar_angle_r	mtp_angle_r	hip_flexion_l	hip_adduction_l	hip_rotation_l	knee_angle_l	knee_adduction_l	knee_angle_l_beta	ankle_angle_l	subtalar_angle_l	mtp_angle_l	lumbar_extension	lumbar_bending	lumbar_rotation	arm_flex_r	arm_add_r	arm_rot_r	elbow_flex_r	pro_sup_r	wrist_flex_r	wrist_dev_r	arm_flex_l	arm_add_l	arm_rot_l	elbow_flex_l	pro_sup_l	wrist_flex_l	wrist_dev_l
      0.00000000	      9.88412709	      0.01545441	     -6.60562697	     -1.03914607	      0.84786265	     -0.33955742	     12.68894923	     -3.74968552	    -18.41375808	     52.42125755	    -12.74861838	      0.91492354	     12.16019550	     -0.84737275	     -9.47997105	    -11.07336506	      2.81052618	     -9.86436778	      9.56769457	      4.31145415	      0.16698777	     17.33282684	     -3.31043132	     -9.47997105	    -24.09416833	     -2.17285621	      2.88356658	      3.92818041	    -15.88463141	     -4.09002009	     36.59071632	     90.00000001	      0.00000000	      0.00000000	      0.89733993	     -7.72173997	    -31.04244395	     32.63667169	     90.00000001	      0.00000000	      0.00000000
      0.01000000	      9.62668864	     -0.26195355	     -6.27703345	     -1.02490714	      0.84757143	     -0.34033841	     14.02325719	     -3.10517015	    -18.52942776	     49.48555466	    -11.74837394	      0.86368586	     12.67871790	     -0.75403675	     -9.41142756	    -12.55526670	      2.61775195	    -10.06913689	      8.33106200	      4.39102448	      0.14540446	     17.86196055	     -2.14184084	     -9.41142756	    -23.77799212	     -1.53611165	      2.05469811	      4.00776950	    -15.73396518	     -4.19453734	     36.12352247	     90.00000001	      0.00000000	      0.00000000	      0.90271733	     -7.75114435	    -29.12233598	     34.86125419	     90.00000001	      0.00000000	      0.00000000
      0.02000000	      9.03299033	      0.04107142	     -5.96634742	     -1.01083604	      0.84610901	     -0.34155902	     15.91044430	     -3.36215587	    -18.81245132	     46.78778168	    -10.62623516	      0.81660084	     12.72510045	     -0.75807171	     -9.38363869	    -13.13174765	      3.08047032	    -10.79959350	      7.98236503	      4.25026537	      0.13931855	     18.03879879	     -1.85641213	     -9.38363869	    -23.01297298	     -1.45075472	      1.21013208	      3.74434240	    -15.66474713	     -4.20599850	     36.10850883	     90.00000001	      0.00000000	      0.00000000	      1.58039370	     -7.73291268	    -28.42145840	     36.03917853	     90.00000001	      0.00000000	      0.00000000
      0.03000000	      9.61371310	     -0.77692223	     -5.24074674	     -0.99565429	      0.84617538	     -0.34190411	     15.35597317	     -2.15345483	    -19.46536598	     42.46364101	     -9.47463980	      0.74113035	     13.02635439	     -0.72805567	     -9.27002966	    -15.88811845	      2.12422093	    -10.48495082	      6.33356788	      4.60972817	      0.11054161	     18.81836049	      0.12678515	     -9.27002966	    -23.61308501	     -0.29975752	      0.14390660	      3.97543435	    -15.45313189	     -4.52484773	     35.52100777	     90.00000001	      0.00000000	      0.00000000	      0.50307031	     -8.70270257	    -22.68578126	     39.93405383	     90.00000001	      0.00000000	      0.00000000
      0.04000000	      9.55147488	     -0.77408249	     -4.77745631	     -0.98091942	      0.84458207	     -0.34273776	     15.96136199	     -2.09075688	    -19.90856300	     38.84164038	     -8.15096637	      0.67791451	     13.32203115	     -0.56573620	     -9.18187111	    -17.35247419	      2.18938730	    -10.80369699	      5.57449614	      4.63525815	      0.09729331	     19.32874006	      1.29141173	     -9.18187111	    -23.41912230	      0.01792680	     -0.83108669	      3.96672417	    -15.33031012	     -4.70667829	     35.11584808	     90.00000001	      0.00000000	      0.00000000	      0.50010706	     -9.11455040	    -20.82157702	     42.43437931	     90.00000001	      0.00000000	      0.00000000
      0.05000000	      9.51736406	     -0.73150672	     -4.33352871	     -0.96614195	      0.84261115	     -0.34345998	     16.37745306	     -2.11090387	    -20.51296840	     35.04865385	     -6.81036742	      0.61171441	     13.59972233	     -0.00488971	     -9.09528420	    -18.78689122	      2.26066357	    -11.23762027	      4.95345021	      4.70277322	      0.08645402	     19.85750927	      2.49148811	     -9.09528420	    -23.24558704	      0.27458794	     -1.72985659	      3.89149232	    -15.24244216	     -4.93096902	     34.80897031	     90.00000001	      0.00000000	      0.00000000	      0.68965587	     -9.50218446	    -19.37879614	     44.65064645	     90.00000001	      0.00000000	      0.00000000
      0.06000000	      9.48543424	     -0.60547111	     -3.94288161	     -0.95132054	      0.84025583	     -0.34408341	     16.68148594	     -2.26444505	    -21.26043680	     31.20661520	     -5.46060017	      0.54465818	     13.92936185	      1.16511953	     -9.01096965	    -20.14918744	      2.43360778	    -11.79732946	      4.49849645	      4.74208045	      0.07851357	     20.40557411	      3.73343660	     -9.01096965	    -23.06213321	      0.41532067	     -2.52446150	      3.76290809	    -15.17649352	     -5.21363165	     34.54016115	     90.00000001	      0.00000000	      0.00000000	      1.04766564	     -9.84241118	    -18.30338475	     46.61079656	     90.00000001	      0.00000000	      0.00000000
      0.07000000	      9.44568510	     -0.37173461	     -3.63198254	     -0.93653750	      0.83756123	     -0.34462046	     16.91879623	     -2.56185579	    -22.03711148	     27.41408012	     -4.07655567	      0.47846596	     14.32478050	      2.88279410	     -8.94379099	    -21.43947628	      2.76333170	    -12.44615188	      4.16686022	      4.72279156	      0.07272543	     20.92972336	      4.90322844	     -8.94379099	    -22.87110598	      0.41384978	     -3.20617107	      3.60477307	    -15.14185913	     -5.52988928	     34.28816566	     90.00000001	      0.00000000	      0.00000000	      1.53699606	    -10.14501604	    -17.42936629	     48.39580686	     90.00000001	      0.00000000	      0.00000000
      0.08000000	      9.35443398	     -0.09200242	     -3.32621422	     -0.92171941	      0.83447832	     -0.34504095	     17.20972176	     -2.96823830	    -23.50575147	     23.85113625	     -2.93031357	      0.41628086	     14.86021486	      6.19778134	     -8.77020412	    -22.48319428	      3.06711189	    -13.54380565	      4.24749357	      4.72345986	      0.07413275	     21.72632132	      6.64500609	     -8.77020412	    -22.62334901	      0.35645328	     -3.78045630	      3.33968624	    -15.08437472	     -6.12326248	     34.18320141	     90.00000001	      0.00000000	      0.00000000	      2.11700197	    -10.45414987	    -16.55609992	     49.99470093	     90.00000001	      0.00000000	      0.00000000
      0.09000000	      9.29793488	      0.19454919	     -3.12501520	     -0.90701447	      0.83134320	     -0.34524242	     17.27369066	     -3.26733825	    -24.20608388	     20.27705821	     -1.55198271	      0.35390143	     15.00733094	      8.54610879	     -8.71122923	    -23.66964833	      3.42932182	    -14.19513147	      4.10442359	      4.71775225	      0.07163571	     22.15581464	      7.53244373	     -8.71122923	    -22.44827851	      0.24549921	     -4.23212308	      3.10534815	    -15.10013845	     -6.45902413	     34.05321147	     90.00000001	      0.00000000	      0.00000000	      2.66822677	    -10.81668291	    -15.62297320	     51.60790251	     90.00000001	      0.00000000	      0.00000000
      0.10000000	      9.19859310	      0.50256567	     -2.88851603	     -0.89226890	      0.82800649	     -0.34541313	     17.43027027	     -3.64827650	    -25.41381685	     17.15012198	     -0.39643880	      0.29932610	     15.07125054	     11.94041307	     -8.61114757	    -24.65087652	      3.71044446	    -15.06864504	      4.31745051	      4.74827629	      0.07535373	     22.80741536	      8.73416670	     -8.61114757	    -22.24390247	      0.12593958	     -4.62638467	      2.79034564	    -15.08234940	     -7.11973624	     34.08441216	     90.00000001	      0.00000000	      0.00000000	      3.26091152	    -11.16133862	    -14.68773289	     53.13729517	     90.00000001	      0.00000000	      0.00000000
      0.11000000	      9.09683440	      0.85116649	     -2.72631996	     -0.87761741	      0.82465890	     -0.34544110	     17.52184231	     -4.00139691	    -25.94833154	     14.30758054	      0.78304458	      0.24971439	     15.01142797	     14.45700154	     -8.56044254	    -25.64071838	      4.05689028	    -15.58477791	      4.47496003	      4.72474916	      0.07810279	     23.14807784	      9.48555199	     -8.56044254	    -22.07128983	     -0.06969446	     -4.93127013	      2.51652163	    -15.11102779	     -7.54183996	     34.01780878	     90.00000001	      0.00000000	      0.00000000	      3.79402567	    -11.53425700	    -13.72121224	     54.74960509	     90.00000001	      0.00000000	      0.00000000
